<svg width="800" height="450" xmlns="http://www.w3.org/2000/svg">
  <rect width="100%" height="100%" fill="#f0f9ff"/>
  <rect x="100" y="50" width="600" height="350" rx="10" fill="white" stroke="#2563eb" stroke-width="2"/>
  
  <!-- Header bar -->
  <rect x="100" y="50" width="600" height="40" rx="10 10 0 0" fill="#2563eb"/>
  
  <!-- Dashboard elements -->
  <rect x="130" y="120" width="250" height="30" rx="5" fill="#e2e8f0"/>
  <rect x="130" y="170" width="250" height="30" rx="5" fill="#e2e8f0"/>
  <rect x="130" y="220" width="250" height="30" rx="5" fill="#e2e8f0"/>
  <rect x="130" y="270" width="250" height="30" rx="5" fill="#e2e8f0"/>
  <rect x="130" y="320" width="150" height="40" rx="5" fill="#2563eb"/>
  
  <!-- Chart placeholder -->
  <rect x="420" y="120" width="250" height="200" rx="5" fill="#e2e8f0"/>
  <circle cx="450" cy="220" r="15" fill="#60a5fa"/>
  <circle cx="500" cy="180" r="15" fill="#60a5fa"/>
  <circle cx="550" cy="250" r="15" fill="#60a5fa"/>
  <circle cx="600" cy="150" r="15" fill="#60a5fa"/>
  <circle cx="650" cy="200" r="15" fill="#60a5fa"/>
  <line x1="450" y1="220" x2="500" y2="180" stroke="#2563eb" stroke-width="2"/>
  <line x1="500" y1="180" x2="550" y2="250" stroke="#2563eb" stroke-width="2"/>
  <line x1="550" y1="250" x2="600" y2="150" stroke="#2563eb" stroke-width="2"/>
  <line x1="600" y1="150" x2="650" y2="200" stroke="#2563eb" stroke-width="2"/>
  
  <!-- Play button overlay -->
  <circle cx="400" cy="225" r="50" fill="rgba(37, 99, 235, 0.8)"/>
  <polygon points="385,200 385,250 425,225" fill="white"/>
  
  <text x="400" y="350" font-family="Arial" font-size="20" text-anchor="middle" fill="#1e40af">LexieHealth AI Demo</text>
</svg> 